<?xml version="1.0" encoding="UTF-8"?>
<!DOCTYPE svg PUBLIC "-//W3C//DTD SVG 1.1//EN" "http://www.w3.org/Graphics/SVG/1.1/DTD/svg11.dtd">
<!-- Creator: CorelDRAW 2018 (64-Bit) -->
<svg xmlns="http://www.w3.org/2000/svg" xml:space="preserve" width="29.7128mm" height="21.2735mm" version="1.1" style="shape-rendering:geometricPrecision; text-rendering:geometricPrecision; image-rendering:optimizeQuality; fill-rule:evenodd; clip-rule:evenodd"
viewBox="0 0 2972.38 2128.14"
 xmlns:xlink="http://www.w3.org/1999/xlink">
 <defs>
  <style type="text/css">
   <![CDATA[
    .fil0 {fill:url(#id0);fill-rule:nonzero}
   ]]>
  </style>
  <linearGradient id="id0" gradientUnits="userSpaceOnUse" x1="583.26" y1="692.65" x2="2443.08" y2="1766.43">
   <stop offset="0" style="stop-opacity:1; stop-color:#8D5919"/>
   <stop offset="0.2" style="stop-opacity:1; stop-color:#FBC040"/>
   <stop offset="0.501961" style="stop-opacity:1; stop-color:#CA8222"/>
   <stop offset="0.74902" style="stop-opacity:1; stop-color:#FBC040"/>
   <stop offset="1" style="stop-opacity:1; stop-color:#8D5919"/>
  </linearGradient>
 </defs>
 <g id="Layer_x0020_1">
  <metadata id="CorelCorpID_0Corel-Layer"/>
  <path class="fil0" d="M2126.67 702.74c-30.83,11.4 -51.5,32.29 -60.89,64 -8.31,27.88 -9.33,57.58 -20.56,84.65 -7.81,18.41 -20.95,37.36 -40.56,44.32 -6.8,2.49 -14.45,3.64 -21.95,3.54 -0.25,0 -0.5,0 -0.68,0 -4.06,-0.02 -8.03,-0.5 -11.92,-1.35 3.44,2.2 6.73,4.82 9.66,7.75 0.18,0.15 0.35,0.38 0.55,0.58 0.18,0.12 0.33,0.25 0.51,0.43 4.74,4.87 8.88,10.49 11.82,16.47 9.86,19.97 4.82,44.45 -3.69,63.9 -11.07,24.94 -29.5,45.53 -42.77,69.14 -7.68,13.66 -13.61,28.45 -14.11,44.22 -0.53,16.07 4.06,31.69 10.74,46.2 0.48,1.13 -0.65,2.19 -1.68,1.69 -15.12,-6.93 -31.26,-11.58 -47.96,-10.62 -15.13,0.88 -29.38,6.62 -42.5,13.99 -23.6,13.25 -44.17,31.76 -69.15,42.77 -19.44,8.56 -43.97,13.61 -63.85,3.74 -5,-2.51 -9.77,-5.78 -14.1,-9.59 0,-0.03 0,-0.08 -0.07,-0.1 -0.43,-0.4 -0.78,-0.73 -1.11,-1.13 -0.62,-0.53 -1.33,-1.06 -1.8,-1.66 -3.14,-3.06 -5.9,-6.48 -8.11,-10.09 0.83,4.07 1.28,8.28 1.28,12.48 0.18,7.6 -1.05,15.22 -3.49,22.09 -7.08,19.59 -25.91,32.75 -44.42,40.45 -27.05,11.32 -56.75,12.4 -84.67,20.62 -31.61,9.34 -52.63,30.11 -63.95,60.91 -0.41,1.16 -1.89,1.16 -2.31,0 -11.42,-30.86 -32.32,-51.5 -64.03,-60.89 -27.92,-8.28 -57.63,-9.31 -84.6,-20.64 -18.4,-7.73 -37.41,-20.89 -44.42,-40.45 -2.41,-6.85 -3.59,-14.41 -3.44,-21.97 0,-0.2 0,-0.45 0,-0.68 0,-4.04 0.4,-8 1.31,-11.92 -2.16,3.44 -4.85,6.7 -7.68,9.64 -0.28,0.17 -0.45,0.38 -0.63,0.6 -0.15,0.15 -0.25,0.25 -0.43,0.43 -4.84,4.84 -10.56,8.93 -16.47,11.9 -19.97,9.84 -44.45,4.89 -63.88,-3.74 -24.98,-11.07 -45.55,-29.51 -69.23,-42.77 -13.67,-7.66 -28.43,-13.5 -44.15,-14.09 -16.07,-0.53 -31.71,4.01 -46.23,10.72 -1.13,0.47 -2.23,-0.56 -1.63,-1.69 6.9,-15.04 11.47,-31.26 10.59,-47.96 -0.93,-15.14 -6.63,-29.33 -14.07,-42.46 -13.2,-23.61 -31.71,-44.2 -42.69,-69.16 -8.63,-19.41 -13.64,-43.95 -3.71,-63.88 2.48,-5.02 5.7,-9.74 9.49,-14.01 0.1,-0.03 0.17,-0.05 0.17,-0.1 0.33,-0.41 0.73,-0.81 1.06,-1.23 0.57,-0.56 1.08,-1.16 1.7,-1.74 3.02,-3.08 6.5,-5.82 10.12,-8.15 -4.12,0.9 -8.28,1.38 -12.55,1.38 -7.56,0.15 -15.1,-1.08 -22,-3.54 -19.64,-7.01 -32.77,-25.94 -40.56,-44.35 -11.22,-27.04 -12.35,-56.8 -20.64,-84.65 -9.24,-31.71 -30.03,-52.63 -60.86,-64 -1.11,-0.42 -1.11,-1.93 0,-2.36 30.88,-11.37 51.55,-32.31 60.88,-64 8.26,-27.87 9.39,-57.6 20.62,-84.62 7.71,-18.36 20.92,-37.38 40.53,-44.37 6.86,-2.46 14.37,-3.64 21.98,-3.49 0.22,0 0.42,0 0.6,0 4.07,0 8.11,0.48 12,1.33 -3.44,-2.23 -6.73,-4.84 -9.69,-7.73 -0.15,-0.18 -0.33,-0.38 -0.6,-0.55 -0.15,-0.18 -0.23,-0.33 -0.43,-0.48 -4.84,-4.84 -8.89,-10.42 -11.82,-16.45 -9.84,-20.02 -4.92,-44.48 3.69,-63.9 11.09,-24.99 29.5,-45.53 42.71,-69.21 7.69,-13.62 13.57,-28.4 14.07,-44.15 0.63,-16.12 -3.97,-31.71 -10.59,-46.23 -0.58,-1.13 0.5,-2.18 1.63,-1.68 15.05,6.98 31.19,11.55 47.96,10.62 15.12,-0.88 29.3,-6.63 42.42,-13.97 23.68,-13.33 44.22,-31.76 69.21,-42.79 19.36,-8.53 43.94,-13.62 63.9,-3.69 4.97,2.46 9.74,5.72 13.96,9.54 0,0.05 0.1,0.07 0.18,0.1 0.35,0.35 0.68,0.73 1.13,1.13 0.58,0.53 1.2,1.08 1.71,1.63 3.11,3.04 5.87,6.48 8.23,10.14 -0.96,-4.12 -1.41,-8.33 -1.31,-12.55 -0.15,-7.56 1.03,-15.15 3.44,-22.07 7.11,-19.57 25.94,-32.72 44.42,-40.43 26.97,-11.29 56.7,-12.4 84.6,-20.64 31.71,-9.36 52.61,-30.08 64.03,-60.89 0.42,-1.13 1.9,-1.13 2.33,-0.02 11.32,30.86 32.32,51.52 63.93,60.91 27.92,8.23 57.62,9.34 84.67,20.64 18.41,7.66 37.43,20.87 44.42,40.43 2.44,6.92 3.54,14.44 3.49,22.02 0,0.2 0,0.43 0,0.65 0,4.02 -0.45,8.03 -1.31,11.95 2.14,-3.49 4.75,-6.73 7.69,-9.69 0.17,-0.17 0.42,-0.35 0.57,-0.55 0.08,-0.15 0.25,-0.28 0.45,-0.45 4.85,-4.85 10.47,-8.91 16.51,-11.88 19.96,-9.83 44.42,-4.92 63.82,3.72 25.01,11.02 45.58,29.45 69.18,42.79 13.64,7.63 28.4,13.48 44.2,14.04 16.1,0.61 31.74,-4.04 46.26,-10.69 1.03,-0.5 2.16,0.55 1.68,1.68 -6.95,15.05 -11.6,31.24 -10.67,47.94 0.85,15.17 6.68,29.35 14.02,42.44 13.28,23.65 31.79,44.22 42.79,69.21 8.51,19.36 13.64,43.94 3.69,63.9 -2.49,4.97 -5.77,9.71 -9.59,13.99 0,0.02 -0.1,0.05 -0.1,0.13 -0.33,0.37 -0.75,0.77 -1.13,1.17 -0.5,0.58 -1,1.21 -1.63,1.71 -3.04,3.11 -6.45,5.88 -10.09,8.21 4.04,-0.9 8.28,-1.36 12.45,-1.33 7.65,-0.18 15.22,1 22.1,3.49 19.61,7 32.74,25.94 40.56,44.37 11.22,27.02 12.34,56.72 20.56,84.62 9.29,31.71 30.06,52.63 60.89,64 1.13,0.43 1.13,1.94 0,2.36zm70.09 -2.51c-34.22,-12.6 -57.28,-35.83 -67.65,-71.11 -9.16,-30.96 -10.37,-63.98 -22.98,-93.99 -8.48,-20.46 -23.15,-41.53 -44.98,-49.31 -7.68,-2.74 -16.05,-4.07 -24.53,-3.92 -4.64,0 -9.31,0.5 -13.92,1.51 4.17,-2.59 7.89,-5.65 11.28,-9.06 0.65,-0.63 1.15,-1.31 1.88,-1.94 0.42,-0.45 0.75,-0.88 1.2,-1.35 0.1,-0.05 0.1,-0.1 0.1,-0.1 4.22,-4.72 7.83,-9.99 10.72,-15.6 10.94,-22.12 5.25,-49.39 -4.17,-70.99 -12.27,-27.75 -32.84,-50.55 -47.51,-76.89 -8.2,-14.52 -14.67,-30.28 -15.57,-47.11 -1.13,-18.61 4.04,-36.58 11.72,-53.28 0.61,-1.26 -0.55,-2.46 -1.78,-1.86 -16.17,7.41 -33.44,12.55 -51.43,11.9 -17.45,-0.65 -33.97,-7.16 -48.99,-15.62 -26.34,-14.8 -49.19,-35.28 -76.91,-47.57 -21.62,-9.56 -48.79,-15.07 -71.02,-4.11 -6.6,3.26 -12.87,7.78 -18.23,13.18 -0.2,0.2 -0.38,0.35 -0.53,0.52 -0.27,0.2 -0.42,0.4 -0.65,0.63 -3.21,3.26 -6.1,6.83 -8.58,10.72 0.93,-4.34 1.45,-8.79 1.45,-13.25 0,-0.28 0,-0.53 0,-0.76 0.18,-8.36 -1.13,-16.77 -3.89,-24.41 -7.65,-21.77 -28.75,-36.4 -49.24,-44.97 -30.08,-12.58 -63.1,-13.74 -94.08,-22.9 -35.18,-10.47 -58.43,-33.35 -71.04,-67.68 -0.51,-1.25 -2.19,-1.25 -2.71,0 -12.58,34.22 -35.81,57.3 -71.07,67.68 -30.98,9.11 -64.03,10.34 -94.01,22.9 -20.51,8.56 -41.51,23.2 -49.34,44.95 -2.69,7.68 -4.07,16.1 -3.89,24.53 0,4.65 0.5,9.37 1.53,13.92 -2.58,-4.04 -5.6,-7.86 -9.16,-11.25 -0.58,-0.62 -1.26,-1.2 -1.88,-1.83 -0.43,-0.4 -0.88,-0.83 -1.31,-1.25 0,0 -0.1,-0.05 -0.17,-0.13 -4.65,-4.22 -10.02,-7.81 -15.55,-10.59 -22.13,-11 -49.4,-5.4 -71.02,4.11 -27.74,12.25 -50.55,32.77 -76.84,47.57 -14.61,8.15 -30.33,14.51 -47.15,15.52 -18.59,1.03 -36.59,-4.12 -53.36,-11.8 -1.18,-0.6 -2.31,0.6 -1.69,1.83 7.33,16.15 12.43,33.47 11.83,51.4 -0.71,17.48 -7.18,33.93 -15.65,49.02 -14.77,26.34 -35.25,49.17 -47.51,76.91 -9.62,21.63 -15.05,48.75 -4.17,70.97 3.26,6.68 7.76,12.93 13.2,18.31 0.18,0.17 0.38,0.35 0.43,0.5 0.3,0.23 0.53,0.43 0.7,0.63 3.29,3.29 6.93,6.15 10.72,8.61 -4.32,-0.96 -8.73,-1.46 -13.23,-1.51 -0.25,0 -0.5,0 -0.77,0 -8.39,-0.12 -16.76,1.18 -24.44,3.92 -21.72,7.75 -36.35,28.85 -44.92,49.29 -12.53,30.03 -13.74,63.05 -22.9,94.01 -10.5,35.27 -33.37,58.5 -67.68,71.14 -1.28,0.47 -1.28,2.11 -0.03,2.58 34.28,12.65 57.28,35.93 67.71,71.14 9.11,30.96 10.36,64.03 22.9,94.04 8.56,20.46 23.2,41.51 44.92,49.31 7.68,2.71 16.15,4.02 24.54,3.87 4.69,0 9.41,-0.45 13.91,-1.48 -4.04,2.56 -7.85,5.65 -11.22,9.08 -0.63,0.61 -1.23,1.29 -1.83,1.94 -0.43,0.42 -0.85,0.9 -1.23,1.33 -0.03,0.02 -0.15,0.1 -0.15,0.12 -4.19,4.72 -7.76,9.97 -10.62,15.53 -11.07,22.14 -5.37,49.41 4.17,71.01 12.25,27.77 32.81,50.6 47.51,76.89 8.18,14.57 14.52,30.31 15.47,47.16 1.11,18.53 -4.04,36.56 -11.65,53.26 -0.62,1.25 0.51,2.41 1.71,1.83 16.15,-7.38 33.52,-12.48 51.4,-11.87 17.58,0.65 33.97,7.15 49.09,15.64 26.27,14.77 49.17,35.26 76.84,47.52 21.67,9.58 48.79,15.12 71.02,4.11 6.65,-3.26 12.85,-7.78 18.31,-13.18 0.15,-0.15 0.35,-0.3 0.52,-0.47 0.28,-0.2 0.46,-0.43 0.61,-0.66 3.28,-3.26 6.15,-6.85 8.63,-10.69 -1.03,4.32 -1.46,8.76 -1.53,13.26 0,0.22 0,0.47 0,0.75 -0.18,8.33 1.2,16.78 3.89,24.43 7.78,21.72 28.83,36.38 49.34,44.9 29.98,12.58 63.03,13.74 93.99,22.95 35.27,10.42 58.5,33.35 71.09,67.65 0.52,1.29 2.2,1.29 2.71,0 12.6,-34.24 35.85,-57.24 71.04,-67.65 30.98,-9.13 64,-10.36 94.08,-22.95 20.49,-8.53 41.49,-23.18 49.24,-44.92 2.76,-7.66 4.07,-16.13 3.92,-24.54 -0.03,-4.69 -0.55,-9.36 -1.48,-13.89 2.58,4.02 5.62,7.83 9.16,11.22 0.5,0.63 1.2,1.26 1.88,1.86 0.38,0.38 0.88,0.8 1.31,1.23 0,0.02 0.12,0.07 0.17,0.1 4.65,4.22 9.92,7.86 15.47,10.59 22.23,11.07 49.4,5.42 71.02,-4.11 27.75,-12.23 50.55,-32.75 76.91,-47.52 14.52,-8.15 30.33,-14.54 47.11,-15.52 18.56,-1.08 36.63,4.09 53.31,11.77 1.23,0.56 2.39,-0.6 1.78,-1.85 -7.33,-16.1 -12.42,-33.42 -11.82,-51.33 0.6,-17.53 7.08,-33.99 15.67,-49.09 14.77,-26.29 35.23,-49.14 47.51,-76.89 9.49,-21.65 15.05,-48.79 4.17,-71.01 -3.31,-6.63 -7.88,-12.86 -13.25,-18.26 -0.18,-0.18 -0.33,-0.38 -0.5,-0.55 -0.15,-0.16 -0.43,-0.38 -0.71,-0.63 -3.18,-3.19 -6.8,-6.08 -10.72,-8.56 4.32,0.93 8.84,1.45 13.33,1.48 0.28,0 0.53,0 0.78,0 8.39,0.15 16.65,-1.18 24.33,-3.87 21.83,-7.75 36.49,-28.9 44.98,-49.31 12.6,-30.06 13.71,-63.08 22.98,-94.04 10.44,-35.2 33.34,-58.45 67.65,-71.14 1.18,-0.47 1.18,-2.11 0,-2.61zm-371.31 250.87c-3.01,1.26 -6.32,1.84 -9.74,1.86 -1.73,0 -3.28,0 -4.84,0 -1.56,0 -2.84,0 -4.22,0 -7.35,-0.02 -14.62,-0.22 -21.97,-0.75 -7.33,-0.48 -14.67,-1.21 -22.05,-2.16 -7.68,-0.48 -15.27,-1.13 -22.52,-1.86 -7.33,-0.75 -14.8,-1.13 -22.05,-1.1 -15.45,-0.03 -30.99,0.6 -46.58,1.83 -15.45,1.23 -30.84,2.81 -45.86,4.79 -3.04,0 -5.72,-0.37 -8.16,-1.12 -2.31,-0.76 -3.94,-2.54 -4.82,-5.5 0,-1.48 0.41,-2.69 1.31,-3.69 0.78,-0.98 1.88,-1.93 3.19,-2.91 2.58,-1.96 5.59,-3.79 9.08,-5.53 3.44,-1.73 7.06,-3.79 10.95,-6.25 6.02,-4.36 11.64,-10.24 16.85,-17.63 5.17,-7.33 7.78,-17.63 7.78,-30.83 0,-1.46 0,-2.99 0.03,-4.44 -0.03,-1.43 -0.03,-2.89 -0.03,-4.37 0,-0.98 -0.1,-2.21 -0.35,-3.67 -0.25,-1.45 -0.35,-2.96 -0.35,-4.41l-11.65 -238.7c0,-0.5 0,-1.13 0,-1.86 0,-0.73 0,-1.33 0,-1.83 -0.35,-1.46 -0.88,-2.69 -1.3,-3.67 -0.33,-0.97 -1.21,-1.48 -2.51,-1.48l-1.36 0c-2.16,0.53 -4.09,1.86 -5.8,4.04 -1.65,2.21 -3.21,4.52 -4.49,6.96 -0.88,1.98 -1.53,3.71 -1.98,5.19 -0.38,1.43 -0.88,2.64 -1.21,3.67l-137.17 285.68c-0.83,2.01 -1.69,4.17 -2.66,6.6 -0.86,2.49 -1.89,5.17 -3.19,8.11 -1.71,4.42 -3.87,8.46 -6.48,12.12 -2.58,3.64 -5.37,5.52 -8.38,5.52 -2.59,-0.02 -5.3,-1.5 -8.36,-4.44 -3.04,-2.91 -6.23,-6.83 -9.66,-11.75 -2.26,-3.41 -4.27,-7.07 -6.15,-11.01 -1.99,-3.9 -4.07,-7.81 -6.23,-11.73 -3.34,-7.83 -6.63,-15.09 -9.69,-21.72 -3.01,-6.55 -5.32,-11.6 -7.03,-15.04l-116.4 -256.32c-0.53,-0.5 -0.78,-0.83 -1.03,-1.06 -0.3,-0.3 -0.35,-0.62 -0.35,-1.13 0,-0.5 -0.2,-0.72 -0.63,-0.72 -0.4,-1.49 -0.96,-2.59 -1.53,-3.34 -0.78,-0.73 -1.48,-1.08 -2.36,-1.08l-1.26 0c-2.21,0.5 -3.74,1.7 -4.52,3.66 -0.87,1.99 -1.4,3.94 -1.4,5.88 0,0.47 0,0.87 0,1.1 0,0.25 0,0.6 0,1.1 0,1.01 0,2.09 0,3.32 0,1.2 0,2.31 0,3.29 -0.33,1.5 -0.6,2.83 -0.6,4.01 0,1.26 0,2.36 0,3.32l-4.47 181.44c0,4.42 0.1,8.91 0.33,13.57 0.17,4.67 0.55,9.46 0.95,14.34 1.73,18.64 6.65,36.11 14.87,52.53 8.23,16.4 22.83,27.07 43.97,31.92 0.88,0 1.66,0.12 2.26,0.4 0.7,0.25 1.4,0.6 2.36,1.1 2.91,0.5 5.77,1.61 8.28,3.31 2.69,1.74 3.97,4.3 3.97,7.71l0 0.73c-0.43,3.41 -1.88,5.5 -4.22,6.25 -2.36,0.73 -5.14,1.08 -8.03,1.08 -5.22,0 -10.39,-0.23 -15.57,-0.71 -5.2,-0.55 -10.62,-0.77 -16.15,-0.75 -1.41,-0.02 -2.61,-0.07 -3.89,-0.37 -1.31,-0.23 -2.69,-0.58 -3.92,-1.11 -6.45,-0.48 -12.95,-1.1 -19.44,-1.83 -6.47,-0.73 -13.13,-1.08 -20.04,-1.06 -2.16,-0.02 -4.32,-0.02 -6.4,-0.02 -2.23,0 -4.39,0.25 -6.55,0.7 -3.36,0 -7.1,0.3 -10.99,0.78 -3.85,0.43 -7.51,0.95 -10.95,1.43 -5.62,0.98 -11.17,1.58 -16.52,1.86 -5.35,0.22 -10.45,0.37 -15.18,0.35 -0.37,0.02 -0.8,0 -0.97,0 -0.26,0.02 -0.53,0.02 -0.93,0.02 -2.61,0 -5.2,-0.55 -7.78,-1.5 -2.62,-0.96 -3.9,-3.39 -3.9,-7.36l0 -0.72c0,-1.96 0.71,-3.52 2.24,-4.75 1.48,-1.23 3.11,-2.08 4.92,-2.58 0.37,-0.48 0.78,-0.73 1.2,-0.73 24.21,-8.33 38.97,-21.45 44.35,-39.29 5.45,-17.86 8.74,-37.82 10.02,-59.84l9.69 -235.81 0.67 -21.3c0,-24.48 -6.4,-46.53 -19.08,-66.11 -12.73,-19.58 -32.69,-29.35 -59.89,-29.37 -0.35,0 -0.7,0 -0.9,0 -0.23,0 -0.58,0 -1.01,0.02 -3.01,-0.02 -5.67,-0.75 -8.03,-2.21 -2.41,-1.48 -3.79,-3.94 -4.22,-7.35l0 -0.73c0,-2.91 1.21,-5.25 3.52,-7 2.33,-1.69 5.12,-2.54 8.11,-2.54 4.69,-0.02 9.23,0.15 13.59,0.38 4.24,0.22 8.81,0.35 13.56,0.37 4.32,0.46 8.73,0.86 13.3,1.08 4.5,0.28 8.91,0.38 13.23,0.38 4.75,0.03 9.49,-0.28 14.27,-0.73 4.67,-0.5 9.49,-1 14.24,-1.48 1.23,0 2.41,-0.12 3.54,-0.35 1.05,-0.28 2.18,-0.38 3.56,-0.38 3.44,-0.47 7.01,-0.85 10.62,-1.1 3.62,-0.25 7.18,-0.63 10.69,-1.11 8.56,0 16.2,1.81 22.66,5.48 6.37,3.69 11.14,9.43 14.16,17.28l148.81 320.98c0.35,1 1.05,2.33 2.01,4.04 0.75,1.73 1.63,3.29 2.51,4.77 1.28,2.94 2.83,5.67 4.52,8.08 1.65,2.46 3.91,3.69 6.42,3.69l1.31 0c2.13,0 4.14,-1.03 5.85,-2.96 1.73,-1.96 3.21,-3.92 4.49,-5.87 0.43,-0.98 0.9,-1.99 1.33,-2.94 0.4,-0.95 0.83,-1.93 1.25,-2.94l137.86 -287.89c3.36,-6.85 6.8,-13.84 10.26,-20.97 3.44,-7.08 6.91,-13.81 10.37,-20.19 2.61,-4.89 5.97,-9.29 10.02,-13.23 4.16,-3.91 8.91,-6.1 14.51,-6.62 3.89,0 7.99,0.15 12,0.4 4.07,0.25 8.08,0.35 11.92,0.35 3.9,0 7.86,0.15 12.03,0.35 4.06,0.25 8.03,0.4 12,0.4 3.79,0 7.78,-0.25 11.82,-0.75 4.17,-0.48 8.13,-0.98 12.02,-1.46 3.87,0 7.78,-0.22 11.67,-0.77 3.87,-0.46 7.79,-0.68 11.65,-0.68 3.49,0 6.48,0.65 8.96,2.16 2.69,1.5 3.92,4.16 3.92,8.08 0,3.46 -0.91,5.75 -2.51,7 -1.73,1.23 -4.17,1.84 -7.18,1.84 -24.56,1.95 -41.04,10.51 -49.5,25.68 -8.4,15.22 -12.62,33.55 -12.62,55.09 0,2.94 0,5.75 -0.03,8.44 0.03,2.71 0.03,5.55 0.03,8.48 0,2.91 0.17,5.73 0.33,8.44 0.3,2.68 0.55,5.47 1.05,8.43l7.68 223.28c0,0.47 0,1 0,1.53 1.73,28.82 6.25,54.39 13.3,76.69 7.11,22.29 28.1,35.15 63.1,38.54 2.91,0.52 5.5,1.63 7.71,3.33 2.11,1.71 3.24,4.3 3.24,7.68 0,2.97 -1.46,5.05 -4.5,6.25zm238.15 -250.59c-27.72,-10.22 -46.41,-29.1 -54.79,-57.63 -7.33,-25.06 -8.33,-51.83 -18.59,-76.13 -6.9,-16.61 -18.78,-33.62 -36.45,-39.92 -6.13,-2.24 -12.95,-3.32 -19.77,-3.19 -3.79,0 -7.6,0.45 -11.32,1.25 3.29,-2.13 6.38,-4.59 9.17,-7.4 0.42,-0.5 0.95,-1.03 1.43,-1.56 0.35,-0.32 0.72,-0.7 0.95,-1.08 0.13,-0.02 0.13,-0.02 0.23,-0.12 3.33,-3.82 6.35,-8.06 8.53,-12.55 8.96,-17.93 4.39,-40.05 -3.39,-57.55 -9.86,-22.43 -26.52,-40.94 -38.41,-62.22 -6.58,-11.8 -11.8,-24.59 -12.63,-38.19 -0.88,-15.07 3.36,-29.61 9.56,-43.17 0.46,-1.03 -0.5,-1.96 -1.43,-1.48 -13.15,6 -27.14,10.14 -41.66,9.61 -14.19,-0.47 -27.49,-5.8 -39.74,-12.65 -21.37,-11.95 -39.87,-28.55 -62.22,-38.49 -17.58,-7.75 -39.6,-12.17 -57.53,-3.39 -5.34,2.69 -10.49,6.38 -14.82,10.75 -0.17,0.1 -0.32,0.25 -0.42,0.37 -0.18,0.18 -0.36,0.35 -0.51,0.51 -2.58,2.66 -4.94,5.62 -6.97,8.73 0.75,-3.51 1.2,-7.18 1.2,-10.74 0,-0.28 0,-0.45 0,-0.66 0.15,-6.77 -0.98,-13.56 -3.14,-19.78 -6.3,-17.59 -23.4,-29.41 -39.92,-36.39 -24.36,-10.19 -51.05,-11.12 -76.21,-18.56 -28.52,-8.45 -47.36,-27.04 -57.52,-54.81 -0.43,-1 -1.74,-1 -2.19,0 -10.26,27.77 -29.1,46.41 -57.52,54.81 -25.17,7.38 -51.93,8.36 -76.22,18.56 -16.6,6.96 -33.61,18.81 -39.92,36.39 -2.25,6.22 -3.33,13.07 -3.08,19.89 -0.13,3.79 0.32,7.6 1.2,11.29 -2.18,-3.31 -4.69,-6.38 -7.43,-9.14 -0.55,-0.52 -1.05,-0.98 -1.58,-1.48 -0.33,-0.3 -0.68,-0.67 -1.1,-1 0,-0.05 0,-0.08 0,-0.08 -3.89,-3.46 -8.24,-6.4 -12.6,-8.66 -18.01,-8.88 -40.05,-4.31 -57.58,3.39 -22.45,9.89 -40.96,26.54 -62.27,38.49 -11.77,6.63 -24.58,11.77 -38.21,12.53 -14.95,0.9 -29.53,-3.27 -43.12,-9.47 -1.06,-0.5 -1.88,0.43 -1.46,1.46 5.95,13.03 10.09,27.12 9.59,41.59 -0.53,14.21 -5.8,27.52 -12.7,39.77 -11.92,21.29 -28.52,39.79 -38.46,62.22 -7.76,17.53 -12.15,39.54 -3.27,57.55 2.59,5.39 6.25,10.44 10.6,14.82 0.17,0.15 0.3,0.27 0.47,0.4 0.08,0.17 0.25,0.32 0.5,0.5 2.59,2.61 5.53,4.97 8.64,6.98 -3.57,-0.78 -7.05,-1.18 -10.74,-1.23 -0.16,0.02 -0.41,0 -0.58,0 -6.83,-0.1 -13.57,0.98 -19.79,3.19 -17.63,6.22 -29.55,23.38 -36.46,39.92 -10.09,24.3 -11.07,51.07 -18.51,76.13 -8.53,28.53 -27.04,47.39 -54.76,57.63 -1.06,0.4 -1.06,1.73 0,2.13 27.72,10.22 46.3,29.03 54.76,57.6 7.33,25.09 8.41,51.83 18.51,76.14 7.01,16.58 18.84,33.62 36.46,39.92 6.22,2.26 13.03,3.31 19.86,3.19 3.82,0 7.61,-0.4 11.25,-1.23 -3.29,2.08 -6.3,4.57 -9.06,7.38 -0.55,0.5 -1.06,1 -1.48,1.55 -0.36,0.35 -0.71,0.71 -1.03,1.08 0,0 -0.1,0.08 -0.1,0.08 -3.42,3.86 -6.4,8.11 -8.54,12.6 -9.01,17.96 -4.42,40.04 3.29,57.52 9.92,22.45 26.52,40.99 38.44,62.25 6.68,11.82 11.82,24.53 12.6,38.19 0.88,15.04 -3.39,29.63 -9.49,43.19 -0.42,1 0.4,1.93 1.46,1.48 13.05,-6 27.04,-10.16 41.66,-9.66 14.17,0.55 27.47,5.8 39.67,12.7 21.32,11.92 39.82,28.55 62.27,38.46 17.56,7.76 39.57,12.2 57.58,3.37 5.32,-2.69 10.41,-6.35 14.74,-10.72 0.1,-0.13 0.35,-0.23 0.43,-0.38 0.17,-0.17 0.37,-0.37 0.5,-0.55 2.61,-2.61 4.94,-5.55 6.9,-8.66 -0.73,3.51 -1.05,7.13 -1.05,10.77 0,0.15 -0.03,0.37 0,0.58 -0.2,6.82 0.83,13.59 3.08,19.79 6.31,17.63 23.33,29.47 39.92,36.43 24.29,10.14 51.08,11.12 76.22,18.53 28.42,8.46 47.26,27.04 57.52,54.82 0.45,1.02 1.73,1.02 2.19,0 10.16,-27.75 29,-46.41 57.52,-54.82 25.16,-7.4 51.85,-8.38 76.21,-18.53 16.53,-6.96 33.62,-18.81 39.92,-36.43 2.16,-6.23 3.29,-13.03 3.14,-19.87 0,-3.76 -0.48,-7.58 -1.23,-11.27 2.06,3.29 4.57,6.38 7.43,9.14 0.5,0.47 1,0.95 1.56,1.45 0.32,0.3 0.7,0.68 1.03,1.03 0,0.03 0.1,0.03 0.1,0.08 3.89,3.44 8.1,6.35 12.62,8.61 17.86,8.91 39.97,4.34 57.53,-3.37 22.35,-9.91 40.86,-26.54 62.22,-38.46 11.84,-6.63 24.53,-11.8 38.26,-12.6 14.95,-0.86 29.53,3.34 43.14,9.56 0.93,0.45 1.89,-0.48 1.43,-1.48 -6.04,-13.08 -10.06,-27.09 -9.56,-41.64 0.5,-14.19 5.7,-27.47 12.63,-39.74 11.89,-21.27 28.55,-39.8 38.41,-62.25 7.78,-17.55 12.18,-39.54 3.39,-57.52 -2.69,-5.4 -6.33,-10.42 -10.72,-14.82 -0.1,-0.13 -0.17,-0.25 -0.35,-0.4 -0.18,-0.18 -0.35,-0.35 -0.55,-0.5 -2.66,-2.64 -5.47,-5 -8.69,-6.98 3.54,0.75 7.18,1.18 10.8,1.23 0.15,0 0.42,0 0.57,0 6.76,0.12 13.59,-0.98 19.74,-3.19 17.66,-6.25 29.53,-23.35 36.43,-39.92 10.25,-24.31 11.17,-51.08 18.59,-76.14 8.46,-28.57 27.07,-47.38 54.79,-57.6 1.05,-0.4 1.05,-1.73 0,-2.13zm-1828.75 1047.94c0.33,0.76 0.76,1.81 1.48,3.09 0.61,1.31 1.28,2.51 1.96,3.64 1.01,2.24 2.11,4.29 3.44,6.18 1.28,1.85 2.94,2.78 4.97,2.76l0.95 0.02c1.64,0 3.07,-0.73 4.42,-2.26 1.33,-1.45 2.44,-2.96 3.44,-4.46 0.33,-0.76 0.65,-1.51 0.98,-2.24 0.35,-0.78 0.7,-1.5 0.98,-2.26l105.14 -219.61c2.61,-5.22 5.24,-10.54 7.85,-15.97 2.64,-5.4 5.27,-10.55 7.91,-15.4 1.96,-3.71 4.52,-7.1 7.73,-10.12 3.01,-2.96 6.75,-4.61 10.99,-5.02 2.97,0 6.05,0.11 9.17,0.28 3.08,0.2 6.17,0.3 9.06,0.3 2.99,0 6.05,0.08 9.13,0.23 3.14,0.22 6.18,0.32 9.14,0.32 2.96,0 6.05,-0.2 9.14,-0.57 3.11,-0.35 6.12,-0.76 9.08,-1.11 3.02,0 5.98,-0.22 8.94,-0.57 2.94,-0.36 5.9,-0.56 8.89,-0.53 2.61,-0.03 4.94,0.53 6.87,1.65 1.94,1.13 2.97,3.17 2.97,6.15 0,2.61 -0.66,4.42 -1.94,5.35 -1.35,0.93 -3.13,1.38 -5.49,1.38 -18.71,1.51 -31.34,8.06 -37.74,19.62 -6.38,11.59 -9.56,25.56 -9.56,42.03 0,2.26 0,4.4 0,6.43 0.02,2.06 0,4.22 0,6.45 0.02,2.21 0.07,4.39 0.22,6.43 0.18,2.08 0.4,4.21 0.81,6.47l5.84 170.3c0,0.37 0.03,0.75 0.03,1.13 1.3,22.04 4.69,41.56 10.06,58.5 5.48,17.03 21.48,26.82 48.14,29.45 2.29,0.38 4.24,1.21 5.88,2.51 1.68,1.33 2.56,3.29 2.53,5.93 0,2.18 -1.18,3.79 -3.51,4.72 -2.29,0.98 -4.77,1.38 -7.36,1.38 -1.3,0 -2.58,0 -3.69,0 -1.18,0 -2.26,0 -3.26,0 -5.55,0 -11.15,-0.2 -16.75,-0.53 -5.6,-0.4 -11.15,-0.95 -16.81,-1.68 -5.87,-0.4 -11.62,-0.83 -17.27,-1.41 -5.58,-0.55 -11.15,-0.85 -16.73,-0.85 -11.85,0 -23.66,0.48 -35.5,1.43 -11.9,0.9 -23.51,2.13 -35.03,3.64 -2.31,0 -4.37,-0.33 -6.17,-0.85 -1.86,-0.56 -3.09,-1.96 -3.72,-4.22 0,-1.13 0.33,-2.01 1.03,-2.79 0.6,-0.73 1.51,-1.48 2.38,-2.26 1.99,-1.45 4.32,-2.88 6.93,-4.16 2.61,-1.31 5.47,-2.89 8.39,-4.8 4.61,-3.31 8.88,-7.8 12.82,-13.43 3.97,-5.59 5.95,-13.43 5.95,-23.53 0,-1.13 0,-2.23 0,-3.36 0,-1.13 0,-2.26 0,-3.39 0,-0.7 -0.12,-1.68 -0.25,-2.78 -0.2,-1.11 -0.3,-2.21 -0.3,-3.34l-8.84 -182.13c0,-0.32 0,-0.83 0,-1.38 0,-0.55 0.03,-1 0,-1.4 -0.32,-1.08 -0.67,-2.01 -1,-2.79 -0.3,-0.73 -0.98,-1.11 -1.96,-1.11l-0.98 0c-1.68,0.38 -3.13,1.39 -4.47,3.07 -1.28,1.68 -2.46,3.49 -3.43,5.32 -0.66,1.48 -1.16,2.78 -1.46,3.91 -0.35,1.13 -0.7,2.04 -0.95,2.79l-104.64 217.98c-0.68,1.48 -1.33,3.16 -1.96,5.02 -0.65,1.86 -1.48,3.92 -2.46,6.18 -1.33,3.33 -2.96,6.42 -4.92,9.23 -1.98,2.81 -4.11,4.22 -6.47,4.22 -1.96,0 -4.07,-1.13 -6.38,-3.36 -2.36,-2.24 -4.77,-5.23 -7.4,-8.94 -1.66,-2.66 -3.19,-5.47 -4.72,-8.46 -1.43,-2.96 -3.01,-5.95 -4.62,-8.94 -2.69,-5.97 -5.15,-11.47 -7.46,-16.52 -2.25,-5.07 -4.06,-8.89 -5.39,-11.5l-88.79 -195.53c-0.35,-0.35 -0.58,-0.68 -0.75,-0.83 -0.2,-0.22 -0.25,-0.47 -0.25,-0.82 0,-0.41 -0.15,-0.58 -0.5,-0.58 -0.33,-1.11 -0.71,-1.96 -1.26,-2.51 -0.45,-0.6 -1.03,-0.85 -1.66,-0.85l-1.05 0c-1.63,0.37 -2.79,1.3 -3.44,2.81 -0.65,1.48 -0.98,2.98 -0.98,4.46 -0.02,0.41 0,0.66 0,0.83 0,0.18 0,0.48 0,0.88 0,0.73 0,1.56 -0.02,2.49 0.02,0.95 0.02,1.78 0.02,2.51 -0.32,1.15 -0.45,2.21 -0.45,3.08 0,0.98 0,1.79 0,2.51l-3.49 138.43c0,3.34 0.1,6.81 0.23,10.35 0.2,3.54 0.45,7.17 0.75,10.94 1.33,14.17 5.12,27.52 11.35,40.05 6.25,12.47 17.45,20.61 33.54,24.35 0.7,0 1.28,0.08 1.76,0.28 0.5,0.2 1.03,0.45 1.7,0.85 2.31,0.38 4.42,1.21 6.43,2.51 1.96,1.28 2.94,3.27 2.94,5.9l0 0.5c-0.33,2.66 -1.38,4.27 -3.19,4.77 -1.78,0.58 -3.87,0.86 -6.18,0.86 -3.91,0 -7.9,-0.18 -11.84,-0.53 -3.94,-0.38 -8.06,-0.63 -12.33,-0.6 -0.98,0 -1.96,-0.08 -2.93,-0.25 -1.01,-0.15 -1.99,-0.51 -2.97,-0.86 -4.94,-0.37 -9.84,-0.83 -14.79,-1.38 -4.95,-0.55 -10.07,-0.88 -15.32,-0.88 -1.68,0 -3.29,0 -4.92,0 -1.66,0 -3.32,0.23 -4.95,0.61 -2.58,0 -5.47,0.15 -8.38,0.55 -2.96,0.37 -5.72,0.7 -8.41,1.1 -4.22,0.78 -8.41,1.23 -12.55,1.38 -4.14,0.2 -7.96,0.33 -11.6,0.33 -0.32,0 -0.55,0 -0.72,0 -0.2,0 -0.41,0 -0.76,0 -1.93,0 -3.96,-0.38 -5.92,-1.13 -1.98,-0.75 -2.99,-2.61 -2.99,-5.6l0 -0.55c0,-1.51 0.58,-2.74 1.73,-3.66 1.21,-0.93 2.41,-1.56 3.72,-1.94 0.33,-0.37 0.68,-0.57 1.03,-0.57 18.41,-6.36 29.65,-16.36 33.79,-29.99 4.12,-13.63 6.63,-28.85 7.66,-45.65l7.38 -179.87 0.45 -16.27c0,-18.66 -4.79,-35.43 -14.52,-50.4 -9.71,-14.94 -24.91,-22.42 -45.68,-22.42 -0.32,0 -0.52,0 -0.72,0 -0.15,0 -0.43,0 -0.71,0 -2.31,0 -4.36,-0.56 -6.17,-1.66 -1.88,-1.13 -2.91,-2.99 -3.21,-5.6l0 -0.55c0,-2.26 0.9,-4.04 2.68,-5.32 1.81,-1.31 3.87,-2.01 6.2,-2.01 3.57,0 7.05,0.1 10.32,0.3 3.31,0.2 6.75,0.25 10.34,0.25 3.34,0.38 6.68,0.71 10.17,0.88 3.43,0.23 6.8,0.28 10.06,0.3 3.67,-0.02 7.25,-0.22 10.87,-0.6 3.61,-0.35 7.2,-0.73 10.87,-1.13 0.98,0 1.88,-0.05 2.66,-0.22 0.8,-0.18 1.76,-0.31 2.76,-0.31 2.59,-0.4 5.35,-0.62 8.13,-0.85 2.79,-0.17 5.52,-0.48 8.14,-0.83 6.57,0 12.32,1.38 17.27,4.22 4.95,2.79 8.54,7.2 10.87,13.13l113.47 244.84zm450.38 -142.84c-0.27,-1.13 -1.13,-3.09 -2.46,-5.9 -1.3,-2.76 -2.61,-5.7 -3.94,-8.69 -0.63,-1.45 -1.33,-2.78 -1.98,-3.89 -0.65,-1.13 -1.26,-2.26 -1.99,-3.39 -1.6,-2.23 -3.13,-4.16 -4.39,-5.87 -1.35,-1.68 -2.51,-2.48 -3.51,-2.51 -1.63,0 -3.19,1.05 -4.62,3.09 -1.53,2.06 -2.94,4.36 -4.22,7 -0.68,1.86 -1.35,3.74 -2.18,5.57 -0.88,1.89 -1.48,3.19 -1.76,3.92l-4.92 11.22 -32.59 73.37c-0.33,0.4 -0.58,0.93 -0.75,1.71 -0.18,0.7 -0.38,1.31 -0.7,1.66 -0.96,1.85 -1.84,3.66 -2.49,5.34 -0.65,1.68 -0.98,3.44 -0.98,5.32 0,2.99 1.31,5.15 3.72,6.41 2.43,1.33 5.17,2.18 8.13,2.56 0.98,0 1.98,0 2.96,0 1,0 1.98,-0.03 2.96,0l84.37 0c0.65,0 1.31,0 1.98,0 0.66,0 1.44,-0.21 2.44,-0.61 1.3,0 2.61,-0.45 3.99,-1.38 1.26,-0.93 1.96,-2.11 1.96,-3.59 0,-1.18 -0.18,-2.08 -0.53,-2.81 -0.3,-0.8 -0.83,-1.71 -1.43,-2.83 0,-0.36 -0.15,-0.76 -0.28,-1.11 -0.15,-0.4 -0.45,-0.75 -0.72,-1.15l-36.06 -83.44zm152 198.31c5.9,13.82 12.72,24.31 20.46,31.36 7.73,7.08 19.14,12.15 34.25,15.12 2.31,0.38 3.72,1.41 4.24,3.09 0.48,1.68 0.68,3.47 0.71,5.35 0,1.86 -0.71,3.26 -2.21,4.21 -1.48,0.91 -3.22,1.39 -5.17,1.39 -13.84,-2.24 -27.6,-3.72 -41.47,-4.5 -13.79,-0.73 -27.97,-1.1 -42.39,-1.1 -3.66,0 -7.27,0 -10.84,0 -3.64,0 -7.3,0.17 -10.89,0.55 -6.96,0 -13.57,0.25 -19.97,0.85 -6.45,0.56 -12.07,1.16 -17.05,1.94 -0.3,0 -0.73,0.12 -1.23,0.27 -0.5,0.2 -0.9,0.28 -1.21,0.28 -0.97,0 -1.88,0.1 -2.73,0.32 -0.78,0.16 -1.53,0.26 -2.21,0.26 -1.96,0 -3.77,-0.58 -5.45,-1.66 -1.63,-1.13 -2.43,-2.81 -2.43,-5.07l0 -0.53c0.65,-1.88 2.78,-3.74 6.4,-5.65 3.59,-1.85 7.53,-4.09 11.82,-6.7 4.62,-2.98 8.81,-6.6 12.58,-10.92 3.76,-4.29 5.64,-9.79 5.67,-16.55 0,-4.82 -0.63,-9.96 -1.96,-15.37 -1.33,-5.4 -3.14,-10.94 -5.4,-16.55 -1.33,-3.72 -2.78,-7.36 -4.49,-10.89 -1.6,-3.57 -3.24,-7.03 -4.92,-10.4 -1.63,-3.36 -3.24,-6.65 -4.87,-9.76 -1.7,-3.19 -3.16,-6.28 -4.47,-9.26 -1.98,-3.74 -4.19,-6.83 -6.65,-9.24 -2.48,-2.43 -5.87,-4.02 -10.11,-4.77 -3.67,-0.73 -7.93,-1.2 -12.88,-1.38 -4.89,-0.23 -9.81,-0.3 -14.72,-0.3 -1.35,0 -2.51,0 -3.51,0 -0.98,0 -1.96,0 -2.96,0l-70.99 0c-11.22,0.75 -19.27,3.66 -24.24,8.68 -4.89,5.05 -9.03,11.65 -12.3,19.87 -0.95,1.88 -1.93,3.76 -2.71,5.6 -0.8,1.9 -1.75,3.91 -2.73,6.17 -0.66,1.88 -1.43,3.74 -2.21,5.6 -0.81,1.88 -1.71,3.74 -2.66,5.62 -1.08,2.61 -2.11,5.4 -3.27,8.41 -1.23,2.96 -2.05,5.95 -2.68,8.91 -0.7,1.53 -1.08,3.11 -1.26,4.82 -0.15,1.66 -0.27,3.26 -0.27,4.77 0,13.79 5.12,23.78 15.32,29.95 10.16,6.15 21.39,9.97 33.54,11.48 0.33,0 0.66,0 1.01,0 0.35,0 0.6,0.2 0.95,0.57 1.98,0.35 3.79,1.01 5.42,1.94 1.68,0.92 2.49,2.53 2.49,4.74l0.02 0.6c-0.35,2.24 -1.33,3.82 -3.01,4.75 -1.61,0.92 -3.41,1.58 -5.35,1.93 -0.37,0 -0.6,0 -0.77,0 -0.15,0 -0.43,0 -0.76,0 -4.24,0 -8.56,-0.3 -12.75,-0.83 -4.32,-0.58 -8.46,-1.03 -12.4,-1.38 -4.26,-0.38 -8.56,-0.85 -12.8,-1.41 -4.32,-0.55 -8.53,-0.82 -12.85,-0.82 -5.22,0 -10.59,0.15 -15.97,0.55 -5.5,0.37 -10.85,0.93 -16.13,1.68 -5.57,0.35 -11.07,0.78 -16.45,1.13 -5.47,0.35 -10.99,0.53 -16.58,0.53 -1.98,0 -3.66,-0.28 -5.22,-0.86 -1.43,-0.52 -2.16,-1.93 -2.18,-4.19 0,-2.56 0.63,-4.67 1.96,-6.12 1.35,-1.51 3.16,-2.46 5.44,-2.81 10.87,-3.39 19.32,-9.54 25.41,-18.51 6.08,-8.97 11.45,-18.49 16.03,-28.58 0.65,-1.86 1.53,-3.94 2.46,-6.15 0.98,-2.23 1.98,-4.27 2.99,-6.17 0.65,-1.86 1.38,-3.64 2.26,-5.3 0.77,-1.71 1.48,-3.26 2.18,-4.77l75.48 -172.55c1.98,-4.85 4.02,-9.59 6.15,-14.29 2.19,-4.67 4.34,-9.24 6.63,-13.74l25.71 -52.66c0.63,-1.15 1.98,-3.92 3.89,-8.41 1.98,-4.49 4.14,-9.16 6.45,-14.02 0.28,-0.72 0.71,-1.45 1.21,-2.23 0.55,-0.7 0.9,-1.68 1.2,-2.81 2.36,-4.84 4.65,-9.04 6.98,-12.6 2.26,-3.54 3.94,-5.3 4.9,-5.3 0.67,0 1.48,0.35 2.46,1.11 1,0.78 1.98,1.85 2.96,3.34 0.65,1.13 1.38,2.25 2.21,3.38 0.8,1.08 1.58,2.39 2.25,3.89 1.31,2.26 2.46,4.52 3.44,6.73 0.98,2.26 1.66,3.77 1.99,4.49l6.9 14.6 126.31 286.28zm181.97 -177.08c0,14.27 1.53,23.66 4.49,28.33 2.92,4.66 10.17,7 21.68,7 1.65,0 3.39,0 5.22,0 1.78,0 3.51,-0.03 5.14,-0.03 23.36,-0.35 44.68,-3.23 64.13,-8.66 19.44,-5.39 29.1,-23.45 29.1,-54.06 0,-27.27 -9.23,-49.94 -27.89,-68.05 -18.49,-18.16 -41.44,-27.2 -68.79,-27.2 -13.5,0 -22.37,2.89 -26.61,8.69 -4.32,5.8 -6.48,14.84 -6.48,27.17l0 86.8zm0 140.11c0,1.51 0,2.89 0,4.2 0,1.33 0,2.53 0,3.61 0.35,17.2 3.19,32.99 8.46,47.39 5.17,14.36 18.33,22.32 39.39,23.78 2.97,0.37 5.63,1.13 7.96,2.26 2.34,1.15 3.52,3.33 3.89,6.72 0,2.21 -0.53,3.99 -1.73,5.32 -1.13,1.28 -3.01,1.96 -5.62,1.94 -4.7,0 -9.14,-0.15 -13.57,-0.53 -4.49,-0.38 -8.96,-0.6 -13.59,-0.6 -4.19,0 -8.61,-0.18 -13.12,-0.53 -4.4,-0.38 -8.89,-0.58 -13.57,-0.58 -7.5,0 -15.12,0.2 -22.65,0.58 -7.48,0.35 -15.02,0.88 -22.17,1.66 -7.61,0.4 -15.15,0.87 -22.65,1.4 -7.69,0.58 -15.23,0.86 -22.81,0.86 -0.6,-0.03 -1.2,0 -2,0 -0.63,0 -1.21,0 -1.89,0 -1.63,-0.38 -3.21,-0.91 -4.67,-1.71 -1.58,-0.73 -2.23,-1.86 -2.23,-3.34 0,-2.26 0.63,-4.09 2.23,-5.6 1.49,-1.48 3.54,-2.98 6.13,-4.44 1.66,-1.15 3.39,-2.18 5.19,-3.11 1.81,-0.93 3.69,-1.99 5.7,-3.09 4.57,-2.99 8.81,-7.18 12.78,-12.6 3.99,-5.4 6.12,-13.74 6.45,-24.94l0 -235.33c0,-19.39 -3.69,-34.6 -11.12,-45.65 -7.4,-11 -21.35,-17.84 -41.66,-20.45 -2.69,-0.4 -5.12,-1.23 -7.46,-2.51 -2.26,-1.3 -3.44,-3.66 -3.44,-7 0,-1.88 0.41,-3.56 1.23,-5.07 0.83,-1.48 2.39,-2.21 4.72,-2.21 4.95,0 9.77,0.15 14.55,0.55 4.77,0.38 9.61,0.53 14.54,0.53 4.92,0.4 9.84,0.78 14.62,1.13 4.74,0.38 9.56,0.58 14.52,0.58 10.19,0 20.39,-0.28 30.58,-0.83 10.17,-0.58 20.57,-1.41 30.98,-2.54 10.3,-0.75 20.52,-1.4 30.61,-1.95 10.29,-0.58 20.49,-0.83 30.68,-0.83 3.29,0 6.58,0.1 9.84,0.25 3.29,0.2 6.56,0.48 9.84,0.85 27.32,2.26 52.53,10.67 75.69,25.21 23.28,14.57 35.5,37.56 36.83,68.94 0,17.93 -3.29,32.31 -9.86,43.11 -6.56,10.85 -13.82,19.64 -21.75,26.37 -7.88,6.35 -15.12,11.09 -21.7,14.29 -6.57,3.19 -9.89,5.88 -9.86,8.11l0 0.55c0,1.16 3.18,7.48 9.59,19.06 6.37,11.57 13.56,24.11 21.52,37.54 0.27,0.38 0.6,0.95 0.95,1.68 7.23,12.35 13.92,23.81 20.04,34.45 6.03,10.64 9.84,17.28 11.57,19.89 0.63,1.48 1.38,2.99 2.19,4.47 0.87,1.5 1.7,2.83 2.76,3.96 5.14,9.32 11.54,17.81 19.26,25.46 7.5,7.66 17.03,11.5 28.6,11.5 1.63,0 3.16,-0.1 4.64,-0.3 1.51,-0.2 2.86,-0.43 4.17,-0.83 1.63,-0.35 3.26,-0.65 4.64,-0.85 1.56,-0.18 2.97,-0.25 4.25,-0.25 1.3,0 2.33,0.35 3.23,1.1 0.73,0.78 1.36,1.66 1.71,2.79 0.35,0 0.4,0.1 0.4,0.27 0.03,0.2 0,0.46 0,0.86 0,3.71 -1.18,6.75 -3.86,8.93 -2.71,2.26 -5.45,4.12 -8.39,5.63 -1,0.37 -1.9,0.75 -2.68,1.13 -0.86,0.35 -1.73,0.75 -2.76,1.15 -7.16,3.71 -14.75,6.7 -22.66,8.94 -7.9,2.25 -15.97,3.36 -24.18,3.36 -17.45,0 -33.34,-7.86 -47.61,-23.56 -14.34,-15.69 -26.72,-33.06 -37.26,-52.1 -5.95,-10.44 -11.19,-20.52 -15.82,-30.26 -4.54,-9.71 -8.69,-18.33 -12.3,-25.76 -2.01,-4.14 -3.89,-7.93 -5.92,-11.5 -1.96,-3.51 -3.95,-6.8 -5.9,-9.78 -6.58,-10.07 -14.12,-16.81 -22.68,-20.17 -8.56,-3.36 -21.67,-5.05 -39.49,-5.05 -6.2,0 -10.52,1.03 -12.78,3.09 -2.33,2.06 -3.54,6.25 -3.54,12.55l0 67.85zm374.6 -1.68c0,20.54 2.83,39.3 8.53,56.3 5.8,17 21.7,25.49 47.61,25.49 2.34,0 4.39,0.37 6.23,1.13 1.83,0.75 2.81,2.43 3.18,5.04 0,3.72 -1.18,6.07 -3.71,7 -2.49,0.93 -5.32,1.56 -8.64,1.94 -0.32,0 -0.75,0.02 -1.2,0 -0.55,0 -1.13,0 -1.73,0 -6.93,0 -13.84,-0.18 -20.72,-0.53 -6.93,-0.38 -13.84,-0.95 -20.77,-1.71 -6.83,-0.37 -13.89,-0.83 -20.89,-1.38 -7.08,-0.55 -14.09,-0.88 -21.02,-0.88 -4.22,0 -8.39,0.23 -12.33,0.63 -3.99,0.35 -8.03,0.7 -12.35,1.08 -2.26,0 -4.67,0.18 -7.1,0.55 -2.51,0.35 -4.82,0.76 -7.18,1.11 -3.61,0 -7.33,0.22 -11.14,0.6 -3.69,0.35 -7.58,0.73 -11.58,1.08 -2.2,0 -4.31,-0.28 -6.12,-0.83 -1.78,-0.58 -3.11,-1.96 -3.74,-4.22 0,-1.13 0.48,-2.23 1.23,-3.31 0.88,-1.13 2.13,-2.06 3.69,-2.84 2.03,-1.13 4.29,-2.41 6.93,-3.89 2.71,-1.5 5.44,-3.16 8.41,-5.07 4.92,-3.71 9.56,-8.93 13.81,-15.7 4.32,-6.72 6.4,-16.4 6.4,-29.1 0,-3.36 0.08,-6.62 0.25,-9.84 0.18,-3.16 0.28,-6.42 0.28,-9.79 0,-3.36 0,-6.62 0,-9.79 0,-3.16 0,-6.42 0,-9.78l0 -191.62c0,-1.1 0,-2.33 0,-3.66 0,-1.31 0,-2.49 0,-3.62 -0.35,-1.13 -0.53,-2.33 -0.53,-3.66 0,-1.28 0,-2.54 0,-3.64 0,-15.68 -3.29,-26.59 -9.84,-32.74 -6.57,-6.18 -13.86,-10.19 -21.69,-12.05 -2.69,-0.76 -5.2,-1.41 -7.73,-1.99 -2.36,-0.55 -4.8,-1 -7.11,-1.38 -4.94,-0.72 -8.93,-1.65 -12.12,-2.81 -3.09,-1.1 -4.57,-3.36 -4.57,-6.7 0,-1.88 0.53,-3.66 1.66,-5.32 1.18,-1.71 2.91,-2.54 5.17,-2.54 1.73,0 3.11,0.11 4.21,0.28 1.13,0.23 2.44,0.3 3.72,0.3 0.95,0.35 1.91,0.65 2.94,0.86 0.95,0.17 2.15,0.22 3.43,0.22 2.69,0.78 6.08,1.33 10.09,1.71 4.1,0.4 9.62,0.55 16.56,0.55 9.58,0 18.91,-0.25 28.07,-0.83 9.24,-0.55 18.48,-1.23 27.67,-1.96 9.26,-0.72 18.36,-1.4 27.65,-1.98 9.21,-0.55 18.38,-0.83 27.62,-0.83 2.58,0 4.46,0.48 5.62,1.43 1.23,0.88 1.98,2.69 2.31,5.27 0,2.64 -0.65,4.57 -1.76,5.9 -1.13,1.33 -3.21,2.36 -6.17,3.09 -14.2,2.23 -22.88,6.53 -26.17,12.88 -3.19,6.35 -5.12,16.22 -5.34,29.7l0 221.87zm76.36 -146.54c6.9,-24.81 18.78,-47.51 35.52,-68.05 17.46,-21.67 38.37,-38.86 62.93,-51.55 24.46,-12.68 50.49,-19.04 78.17,-19.06 15.47,0.02 30.43,1.68 44.85,5.04 14.54,3.34 27.67,7.11 39.49,11.22 11.85,4.47 21.95,8.39 30.31,11.75 8.38,3.36 14.24,5.02 17.55,5.02 1.66,0 3.11,-0.38 4.52,-1.13 1.18,-0.73 2.38,-1.66 3.34,-2.76 0.35,0 0.53,-0.2 0.5,-0.53 1.31,-0.8 2.69,-1.63 3.99,-2.56 1.31,-0.93 2.94,-1.4 4.95,-1.4 2.56,0 4.64,0.9 5.87,2.81 1.38,1.86 1.96,4.27 1.96,7.28 0,3.74 0,7.65 -0.13,11.77 -0.2,4.09 -0.3,8.01 -0.3,11.75 0,4.11 -0.07,8.1 -0.33,12.04 -0.2,3.92 -0.2,7.96 -0.2,12.03 0,4.11 0,8.28 0.2,12.62 0.26,4.3 0.43,8.46 0.76,12.63 0.35,4.42 0.6,8.86 0.8,13.1 0.18,4.32 0.25,8.51 0.25,12.63 -0.35,1.86 -1.35,3.44 -3.01,4.77 -1.58,1.3 -3.39,1.93 -5.37,1.93 -1.76,0 -2.94,-0.33 -3.69,-1.13 -0.91,-0.75 -1.43,-1.86 -1.78,-3.31 -0.31,-0.78 -0.66,-1.81 -1.01,-3.12 -0.27,-1.3 -0.78,-2.66 -1.45,-4.19 -5.55,-30.98 -21.9,-56.87 -48.84,-77.56 -26.95,-20.77 -56.07,-31.11 -87.36,-31.14 -41.76,0 -71.69,14.49 -89.94,43.42 -18.31,28.98 -29.2,60.79 -32.82,95.52 -0.35,5.6 -0.68,11.15 -0.98,16.56 -0.32,5.42 -0.5,10.69 -0.5,15.97 0,8.96 0.6,18.48 1.91,28.6 1.38,10.06 3.36,20.37 5.95,30.78 7.58,28.78 20.64,55.17 39.24,79.28 18.53,24.08 43.34,36.13 74.2,36.13 4.92,0 10.54,-0.43 16.75,-1.38 6.25,-0.93 12.53,-2.34 18.74,-4.2 8.33,-2.26 16.3,-4.97 23.96,-8.13 7.78,-3.16 14.29,-6.8 19.56,-10.94 4.57,-3.32 7.91,-8.11 10.09,-14.3 2.13,-6.12 3.46,-12.39 4.17,-18.73 0.32,-4.12 0.6,-8.23 0.75,-12.35 0.08,-4.09 0.28,-7.83 0.28,-11.19 0,-22.05 -3.47,-37.16 -10.4,-45.38 -6.87,-8.24 -14.31,-13.28 -22.19,-15.15 -2.92,-0.7 -5.98,-1.18 -8.92,-1.4 -2.91,-0.18 -5.59,-0.46 -7.85,-0.86 -4.65,-0.32 -8.46,-1 -11.55,-1.95 -3.19,-0.93 -4.74,-3.02 -4.74,-6.41 0,-2.61 1.1,-4.51 3.44,-5.62 2.33,-1.13 4.84,-1.68 7.4,-1.68 6.58,0 13.15,0.2 19.82,0.53 6.57,0.4 13.3,0.6 20.11,0.6 6.68,0.35 13.15,0.73 19.82,1.13 6.52,0.38 13.1,0.53 19.68,0.53 5.28,0 10.62,-0.18 16.08,-0.53 5.35,-0.4 10.69,-0.78 16.1,-1.13 5.5,-0.38 11.04,-0.73 16.48,-1.13 5.37,-0.38 10.71,-0.53 15.99,-0.5 0.38,-0.03 0.71,-0.03 1.03,-0.03 2.26,0.35 4.25,1.21 5.9,2.49 1.61,1.35 2.49,2.91 2.49,4.77 0,1.85 -0.71,3.46 -1.96,4.72 -1.43,1.33 -2.94,2.18 -4.95,2.56 -0.35,0.4 -0.8,0.65 -1.2,0.82 -0.6,0.21 -0.93,0.31 -1.31,0.31 -12.17,2.63 -19.79,8.4 -22.87,17.38 -3.22,8.96 -4.82,18.66 -5.2,29.1 -0.35,0.75 -0.55,1.6 -0.55,2.53 0,0.93 0,1.99 0.02,3.07 0,4.11 0.08,8.33 0.28,12.62 0.18,4.32 0.43,8.51 0.75,12.6 0.25,4.49 0.56,8.86 0.68,13.15 0.2,4.3 0.3,8.51 0.3,12.6 0,4.85 -1.83,8.51 -5.44,10.95 -3.62,2.41 -7.79,4.57 -12.38,6.42 -5.85,2.26 -11.62,4.5 -17.28,6.73 -5.55,2.26 -11.14,4.44 -16.68,6.7 -4.66,1.89 -9.21,3.74 -13.94,5.6 -4.54,1.88 -9.13,3.92 -13.71,6.18 -14.52,5.99 -29.4,10.94 -44.68,14.84 -15.29,3.94 -32.91,5.9 -53.05,5.9 -49.37,0 -89.97,-16.6 -121.84,-49.85 -31.97,-33.29 -47.89,-73.97 -47.89,-122.19 0,-26.51 3.49,-52.18 10.37,-77.04zm454.19 65.04c0.75,8.38 1.96,16.9 3.69,25.46 6.83,34.75 21.19,66.58 42.87,95.55 21.69,28.95 52.1,43.42 91.32,43.42 44,0 75.88,-15.83 95.4,-47.34 19.61,-31.56 30.18,-66.21 31.88,-103.91 0.28,-2.26 0.43,-4.46 0.43,-6.47 0,-2.04 0,-4.02 0,-5.88 0,-2.63 -0.07,-5.34 -0.25,-8.13 -0.18,-2.79 -0.18,-5.5 -0.18,-8.13 -3.01,-42.22 -17.2,-80.78 -42.71,-115.66 -25.56,-34.92 -61.92,-52.38 -109.28,-52.4 -1.31,0.02 -2.69,0 -3.99,0 -1.26,0.02 -2.56,0.2 -3.84,0.55 -12.9,0.78 -25.34,4.02 -37.26,9.82 -12.08,5.77 -22.5,13.32 -31.36,22.67 -11.17,11.95 -19.54,25.59 -24.89,40.91 -5.44,15.35 -9.13,31.01 -11.17,47.06 -0.65,6.35 -1.13,12.73 -1.45,19.04 -0.33,6.37 -0.51,12.75 -0.48,19.06 -0.03,7.85 0.4,15.97 1.28,24.41zm-13.15 -145.97c37.48,-38.46 85.9,-57.72 145.05,-57.7 55.95,0 102.96,15.37 141.12,46.21 38.11,30.83 57.23,75.33 57.23,133.61 0,59.06 -18.26,108.42 -54.69,148.19 -36.59,39.77 -85.73,59.69 -147.62,59.69 -56.5,0 -103.58,-16.53 -141.09,-49.57 -37.41,-33.09 -56.27,-78.37 -56.27,-135.9 0,-57.87 18.86,-106.09 56.27,-144.53zm489.39 221.85l0 20.74c0,3.02 0,6.38 0,10.07 0,3.74 0.2,7.45 0.55,11.22 0.68,6 1.64,11.67 2.94,17.1 1.28,5.42 3.46,9.44 6.48,12.05 2.58,2.59 5.77,4.17 9.59,4.74 3.74,0.56 7.78,0.83 12.09,0.83 32.14,0 60.62,-4.57 85.28,-13.74 24.71,-9.13 46.55,-27.17 65.65,-54.06 0.61,-0.73 1.39,-1.51 2.16,-2.26 0.88,-0.73 1.89,-1.08 3.19,-1.08 1.38,0 2.36,0.55 2.94,1.68 0.78,1.11 1.2,2.44 1.58,3.92 0,0.38 0.05,0.73 0.23,1.1 0.17,0.38 0.17,0.76 0.17,1.13 0,22.81 -6.98,43.32 -21.14,61.65 -14.2,18.3 -33.72,27.42 -58.68,27.42 -10.27,0 -20.4,-0.18 -30.61,-0.53 -10.29,-0.38 -20.39,-0.95 -30.59,-1.71 -3.69,-0.37 -7.07,-0.65 -10.36,-0.83 -3.27,-0.2 -6.83,-0.27 -10.37,-0.27 -6.9,-0.76 -13.76,-1.21 -20.47,-1.41 -6.72,-0.17 -13.59,-0.3 -20.49,-0.3 -13.48,0 -27.02,0.5 -40.68,1.43 -13.67,0.91 -27.25,2.14 -40.71,3.62 -0.33,0.02 -0.78,0 -1.23,0 -0.5,0 -0.93,0.02 -1.28,0.02 -1.91,-0.02 -3.69,-0.3 -5.42,-0.88 -1.63,-0.52 -2.59,-1.95 -2.86,-4.19 0,-2.56 0.6,-4.47 1.9,-5.6 1.28,-1.13 3.09,-2.03 5.4,-2.76 12.2,-3.39 20.27,-9.91 24.23,-19.66 3.89,-9.67 6.05,-19.92 6.4,-30.81 0.23,-2.59 0.41,-5.1 0.41,-7.53 0,-2.44 0,-4.77 0,-7.05l0 -228.58c0,-13.05 -2.49,-24.08 -7.58,-33.04 -5.1,-8.96 -14.85,-14.54 -29.38,-16.78 -1.28,0.03 -3.14,-0.1 -5.35,-0.3 -2.33,-0.17 -4.79,-0.45 -7.45,-0.83 -3.62,-0.72 -6.91,-1.85 -9.82,-3.36 -2.96,-1.48 -4.49,-3.54 -4.49,-6.15 0,-1.88 0.5,-3.66 1.53,-5.32 0.95,-1.71 2.61,-2.74 4.92,-3.09 4.87,0 9.76,0.2 14.52,0.55 4.77,0.41 9.59,0.93 14.52,1.66 4.56,0.4 9.36,0.88 14.09,1.43 4.77,0.58 9.69,0.83 14.52,0.83 7.58,0 15.12,-0.25 22.5,-0.83 7.43,-0.55 14.77,-1.23 21.94,-1.93 7.58,-0.78 15.13,-1.43 22.45,-2.01 7.46,-0.55 14.97,-0.83 22.48,-0.8 0.63,-0.03 1.38,-0.03 2.23,-0.03 0.76,0 1.74,0.2 2.71,0.56 1.96,0 3.84,0.5 5.6,1.4 1.81,0.95 2.91,2.51 3.29,4.74l0 0.58c0,3.39 -1.31,5.42 -3.74,6.13 -2.43,0.8 -5.15,1.35 -8.11,1.73 -10.16,0.75 -17.1,4.67 -20.74,11.75 -3.62,7.1 -5.72,14.77 -6.38,22.97 -0.35,2.99 -0.55,5.8 -0.55,8.41 0,2.64 0,5.22 0,7.78l0 208.47zm292.59 14.57c0,26.89 5.44,44.85 16.27,53.81 10.87,8.96 29.28,13.4 55.22,13.4 48.39,0 83.79,-16.77 106.34,-50.39 22.55,-33.62 33.8,-71.9 33.82,-114.86 -0.02,-50.07 -15.5,-91.52 -46.61,-124.37 -31.08,-32.89 -72.32,-49.29 -123.57,-49.32 -16.15,0.03 -27.04,2.34 -32.84,7.01 -5.77,4.66 -8.63,12.8 -8.63,24.33l0 240.38zm-64.21 -214.57c0.03,-17.58 -4.72,-31.01 -14.49,-40.34 -9.69,-9.34 -23.58,-13.97 -41.66,-14 -2.36,0 -4.32,-0.57 -5.93,-1.7 -1.68,-1.08 -2.46,-2.99 -2.46,-5.6 0,-2.96 1.06,-5.05 3.22,-6.18 2.16,-1.1 4.31,-1.85 6.65,-2.23 0.95,0 1.81,0 2.51,-0.02 0.58,0.02 1.18,0.02 1.88,0.02 3.99,0 7.96,0.13 11.82,0.3 3.99,0.2 7.99,0.28 11.85,0.28 3.64,0 7.46,0.1 11.4,0.3 3.89,0.18 7.88,0.25 11.82,0.25 10.77,0 21.82,-0.45 32.74,-1.38 11.07,-0.93 22.05,-1.96 32.84,-3.09 10.92,-0.73 21.78,-1.58 32.87,-2.51 10.92,-0.95 21.92,-1.4 32.82,-1.4 54.86,0 104.53,13.64 148.95,40.91 44.43,27.24 66.54,71.51 66.57,132.78 0,57.5 -19.82,106.09 -59.49,145.63 -39.57,39.62 -88.63,59.39 -147.21,59.39 -7.88,0 -15.93,-0.08 -23.96,-0.25 -8.01,-0.15 -15.97,-0.48 -23.83,-0.86 -8.28,0 -16.43,-0.17 -24.53,-0.55 -7.99,-0.38 -16,-0.55 -23.86,-0.55 -6.22,0 -12.35,0.17 -18.26,0.55 -5.95,0.38 -11.74,0.93 -17.28,1.66 -5.95,0.35 -11.74,0.75 -17.55,1.13 -5.67,0.4 -11.37,0.55 -17.01,0.55 -2.23,0 -3.96,-0.63 -4.92,-1.91 -1.05,-1.35 -1.45,-3.14 -1.45,-5.37 0,-1.81 0.58,-3.24 1.96,-4.19 1.28,-0.91 2.93,-1.76 4.94,-2.49 1.63,-0.37 3.34,-0.95 5.15,-1.7 1.85,-0.76 3.81,-1.69 6.17,-2.82 4.19,-2.25 8.34,-6.7 12.05,-13.4 3.82,-6.73 5.65,-17.81 5.62,-33.07l0 -238.12zm-1928.25 568.49c0,0 -4.72,-2.73 -14.16,-8.25 -9.47,-5.53 -16.78,-13.33 -21.95,-23.51 -5.22,-10.11 -7.81,-21.9 -7.81,-35.23l0 -49.34c0,-13.35 2.59,-25.13 7.83,-35.22 5.15,-10.17 12.45,-18.01 21.93,-23.61 9.43,-5.55 20.36,-8.33 32.79,-8.33 10.31,0 19.81,2.23 28.45,6.62 8.66,4.42 15.97,10.65 21.72,18.74 5.87,8.08 9.76,17.43 11.85,28.05l-25.89 0c-1.58,-5.58 -4.17,-10.62 -7.83,-15.02 -3.67,-4.4 -7.99,-7.76 -12.93,-10.19 -4.94,-2.39 -10.04,-3.57 -15.37,-3.57 -7.31,0 -13.77,1.76 -19.26,5.3 -5.53,3.56 -9.77,8.51 -12.86,14.89 -3.03,6.4 -4.61,13.82 -4.61,22.35l0 49.34c0,8.39 1.58,15.85 4.61,22.28 3.09,6.43 7.31,11.37 12.86,14.89 5.49,3.49 11.94,5.28 19.26,5.28 5.37,0 10.49,-1.13 15.42,-3.37 4.89,-2.23 9.21,-5.52 12.85,-9.89 3.69,-4.37 6.28,-9.51 7.86,-15.6l25.86 0c-2.03,10.65 -6,20.02 -11.82,28.08 -5.92,8.08 -13.15,14.34 -21.85,18.76 -8.66,4.42 -18.06,6.57 -28.32,6.57 -12.43,0 -18.64,0 -18.64,0zm134.37 -25.83l103.28 0 0 23.98 -103.28 0.02 0 -24zm0 -77.27l89.69 0 0 23.98 -89.69 0 0 -23.98zm0 -78.55l103.28 0 0 24.01 -103.28 0 0 -24.01zm-12.25 0l25.23 0 0 179.82 -25.23 0 0 -179.82zm172.1 155.84l102.8 -0.02 0 23.98 -102.8 0.02 0 -23.98zm-12.65 -155.84l25.26 0 0 179.82 -25.24 -0.02 -0.02 -179.8zm165.62 155.84l103.23 -0.02 0 24 -103.23 0 0 -23.98zm0 -77.29l89.59 0 0 23.98 -89.59 0 0 -23.98zm0 -78.55l103.23 0 0 24.01 -103.23 0 0 -24.01zm-12.27 0l25.21 0 0 179.82 -25.24 0 0.03 -179.82zm174.26 156.44l48.74 0c12.78,0 22.12,-2.43 28,-7.28 5.77,-4.84 8.71,-11.72 8.71,-20.51l0 -0.41c0,-6.07 -1.01,-11.32 -3.09,-15.69 -2.18,-4.37 -5.45,-7.73 -10.04,-10.07 -4.49,-2.33 -10.27,-3.54 -17.38,-3.54l-54.94 0 0 -22.75 54.94 0c9.26,0 16.35,-2.16 21.09,-6.55 4.7,-4.37 7.11,-10.84 7.11,-19.39 0,-8.98 -2.59,-15.72 -7.96,-20.16 -5.27,-4.47 -13.13,-6.71 -23.65,-6.71l-51.53 0 0 -23.38 56.07 0c11.62,0 21.37,1.99 29.13,5.93 7.88,3.99 13.74,9.56 17.55,16.85 3.89,7.23 5.85,15.9 5.85,25.97 0,6.17 -1.21,11.92 -3.51,17.4 -2.51,5.35 -6.05,9.99 -11.07,13.84 -4.82,3.82 -11,6.4 -18.19,7.71 7.18,1.08 13.52,3.64 18.79,7.73 5.27,4.09 9.34,9.16 12.1,15.27 2.78,6.12 4.24,12.7 4.24,19.81l0 0.36c0,9.71 -2.18,18.3 -6.38,25.73 -4.31,7.41 -10.46,13.16 -18.51,17.18 -7.98,4.07 -17.25,6.05 -27.94,6.05l-58.13 0 0 -23.38zm-14.8 -156.44l25.09 0 0 179.82 -25.09 0 0 -179.82zm231.62 98.21l25.04 -5.69 45.98 87.28 -29.91 0.02 -41.11 -81.61zm-49.01 -18.43l61.34 -0.03c4.74,0.03 8.98,-1.15 12.7,-3.43 3.69,-2.29 6.55,-5.58 8.63,-9.84 2.01,-4.25 3.02,-9.14 3.02,-14.65 0,-5.52 -1.03,-10.39 -3.02,-14.67 -2.05,-4.24 -4.94,-7.53 -8.53,-9.84 -3.74,-2.25 -7.98,-3.46 -12.8,-3.46l-61.34 0 0 -23.96 60.28 0c10.47,0 19.54,2.11 27.42,6.43 7.96,4.29 14,10.37 18.31,18.23 4.32,7.86 6.5,16.98 6.5,27.27 0,10.32 -2.18,19.39 -6.6,27.27 -4.26,7.88 -10.44,13.97 -18.31,18.24 -7.85,4.29 -17.02,6.47 -27.32,6.47l-60.31 0 0.03 -24.03zm-10.97 -79.88l25.23 0 0 179.92 -25.23 -0.02 0 -179.9zm180.24 116.46l94.51 0 -0.02 24.03 -94.49 0 0 -24.03zm35.7 -116.36l21.53 0 66.33 179.8 -27.22 0.02 -49.94 -145.06 -49.77 145.06 -27.22 -0.02 66.28 -179.8zm144.18 14.77l25.24 -0.02 0 165.07 -25.21 0 -0.03 -165.05zm-50.8 -14.77l126.94 0 0 24.01 -126.94 0 0 -24.01zm159.78 179.82l25.24 0 0 -179.82 -25.24 0 0 179.82zm156.94 -28c5.67,-3.36 9.99,-8.08 13.1,-14.21 3.12,-6.15 4.67,-13.26 4.67,-21.37l0 -52.69c0,-8.05 -1.55,-15.19 -4.67,-21.32 -3.11,-6.15 -7.43,-10.89 -13.1,-14.21 -5.62,-3.37 -12.2,-5.02 -19.56,-5.02 -7.43,0 -13.99,1.65 -19.72,5.02 -5.59,3.31 -9.89,8.08 -13.05,14.21 -3.09,6.13 -4.64,13.26 -4.64,21.32l0 52.69c0,8.1 1.55,15.22 4.64,21.37 3.16,6.12 7.46,10.84 13.05,14.21 5.73,3.37 12.3,4.97 19.72,4.97 7.35,0 13.94,-1.6 19.56,-4.97zm-52.73 21.65c-9.59,-5.5 -16.93,-13.23 -22.2,-23.23 -5.2,-10.04 -7.88,-21.64 -7.88,-34.82l0 -51c0,-13.15 2.68,-24.79 7.88,-34.8 5.27,-9.99 12.6,-17.73 22.2,-23.23 9.56,-5.5 20.64,-8.23 33.17,-8.23 12.55,0 23.5,2.73 33.17,8.23 9.53,5.5 16.87,13.23 22.12,23.23 5.2,10.01 7.88,21.65 7.91,34.8l-0.03 51c0,13.18 -2.68,24.78 -7.88,34.82 -5.25,9.97 -12.58,17.73 -22.12,23.23 -9.67,5.42 -20.62,8.18 -33.17,8.18 -12.53,0 -23.61,-2.76 -33.17,-8.18zm142.72 -173.46l22.9 0 87.89 139.04 -2.94 3.19 0 -142.23 24.99 0 0 179.72 -23.11 0 -87.65 -136.92 2.91 -3.22 0.02 140.14 -24.98 0 -0.03 -179.72zm-1623.41 100.52c-18.71,-1.95 -34.75,-1.7 -49.12,1.11 -14.37,2.43 -26.64,8.03 -38.74,15.02 -16.1,10.62 -41.34,16.57 -61.79,9.46 -20.65,-6.6 -35.71,-22 -41.54,-40.17 17.58,6.85 33.27,10.62 46.71,9.76 6.67,-0.47 12.72,-1.38 18.61,-3.81 2.96,-0.7 5.79,-2.56 8.66,-3.67l9.18 -5.19c17.43,-10.37 39.24,-15.73 59.36,-12.13 20.02,3.22 38.21,13.57 48.67,29.63zm1834.19 0c10.44,-16.07 28.67,-26.41 48.64,-29.63 20.14,-3.59 42.01,1.76 59.36,12.13l9.23 5.19c2.87,1.11 5.73,2.97 8.64,3.67 5.8,2.43 11.85,3.34 18.58,3.81 13.41,0.86 29.21,-2.91 46.66,-9.76 -5.77,18.18 -20.82,33.57 -41.46,40.17 -20.49,7.1 -45.73,1.16 -61.79,-9.46 -12.1,-6.98 -24.36,-12.58 -38.72,-15.02 -14.34,-2.81 -30.41,-3.06 -49.14,-1.11z"/>
 </g>
</svg>
